<?xml version="1.0" encoding="UTF-8"?>
<svg width="500px" height="246px" viewBox="0 0 500 246" version="1.1" xmlns="http://www.w3.org/2000/svg" xmlns:xlink="http://www.w3.org/1999/xlink">
    <title>客户活跃度低</title>
    <defs>
        <linearGradient x1="50%" y1="0%" x2="50%" y2="100%" id="linearGradient-1">
            <stop stop-color="#C1DBFE" offset="0%"></stop>
            <stop stop-color="#FFFFFF" offset="100%"></stop>
        </linearGradient>
        <linearGradient x1="15.3295221%" y1="62.5501504%" x2="94.3503219%" y2="50%" id="linearGradient-2">
            <stop stop-color="#F6F6F6" offset="0%"></stop>
            <stop stop-color="#5780DD" offset="100%"></stop>
        </linearGradient>
        <linearGradient x1="50%" y1="0%" x2="50%" y2="100%" id="linearGradient-3">
            <stop stop-color="#89B1F7" offset="0%"></stop>
            <stop stop-color="#9BB9FC" offset="100%"></stop>
        </linearGradient>
        <linearGradient x1="50%" y1="0%" x2="50%" y2="100%" id="linearGradient-4">
            <stop stop-color="#FFFFFF" stop-opacity="0" offset="0%"></stop>
            <stop stop-color="#FFFFFF" offset="100%"></stop>
        </linearGradient>
    </defs>
    <g id="页面-1" stroke="none" stroke-width="1" fill="none" fill-rule="evenodd">
        <g id="常用设备提示" transform="translate(-125.000000, -488.000000)">
            <g id="客户活跃度低" transform="translate(125.000000, 488.000000)">
                <path d="M500,246 C440.989481,172.987556 346.593219,130 245.231565,130 C147.001993,130 59.0481339,173.869459 0,243.031758 C0,243.031758 500,246 500,246 Z" id="椭圆形" fill="url(#linearGradient-1)" fill-rule="nonzero"></path>
                <path d="M126.05261,87.9579158 C126.05261,111.20036 144.856651,130.042084 168.05261,130.042084 C191.24857,130.042084 210.05261,111.20036 210.05261,87.9579158" id="路径" stroke="url(#linearGradient-2)" stroke-width="4" stroke-linecap="round" stroke-linejoin="round" transform="translate(168.052610, 109.000000) rotate(90.000000) translate(-168.052610, -109.000000) "></path>
                <ellipse id="椭圆形备份-16" fill="#5780DD" fill-rule="nonzero" cx="153.306613" cy="129" rx="9.01803607" ry="9"></ellipse>
                <g id="3.通用组件/彩色版/盆栽03备份-4" transform="translate(120.240481, 144.023761)" fill-rule="nonzero">
                    <g id="分组">
                        <g id="Fill-1" transform="translate(5.025053, 0.000000)" fill="#BAE637">
                            <path d="M4.16290373,15.4410968 L0,15.4410968 L0,1.94506961 C0,0.870845501 0.92701637,0 2.07056971,0 L2.09230148,0 C3.23585484,0 4.16290373,0.870845501 4.16290373,1.94506961 L4.16290373,15.4410968 Z" id="路径"></path>
                        </g>
                        <path d="M11.008684,18.7445678 L7.000668,18.7445678 L7.000668,11.6972256 C7.000668,10.6513696 7.8709711,9.80354471 8.94455577,9.80354471 L9.06482758,9.80354471 C10.1383809,9.80354471 11.008684,10.6513696 11.008684,11.6972256 L11.008684,18.7445678 Z" id="Fill-3" fill="#389E0D"></path>
                        <path d="M5.61122244,15.4340432 L1.57648631,15.4340432 L1.57648631,7.77183879 C1.57648631,6.72006543 2.44907042,5.86740915 3.52542529,5.86740915 L3.66228345,5.86740915 C4.73863834,5.86740915 5.61122244,6.72006543 5.61122244,7.77183879 L5.61122244,15.4340432 Z" id="Fill-5" fill="#7CB305"></path>
                        <g id="Fill-7" transform="translate(0.000000, 14.985050)" fill="#3B68B8">
                            <path d="M11.2470911,11.6425941 L0.751176974,11.6425941 C0.33630819,11.6425941 0,11.3145395 0,10.9098524 L0,0.732741712 C0,0.32805457 0.33630819,0 0.751176974,0 L11.2470911,0 C11.6619599,0 11.9982681,0.32805457 11.9982681,0.732741712 L11.9982681,10.9098524 C11.9982681,11.3145395 11.6619599,11.6425941 11.2470911,11.6425941" id="路径"></path>
                        </g>
                    </g>
                </g>
                <g id="3.通用组件/彩色版/盆栽03备份-5" transform="translate(396.489950, 136.033479)" fill-rule="nonzero">
                    <g id="分组">
                        <g id="Fill-1" transform="translate(7.066386, 0.000000)" fill="#BAE637">
                            <path d="M5.61992004,21.7564526 L0,21.7564526 L0,2.74059644 C0,1.22701833 1.2514721,0 2.79526912,0 L2.82460701,0 C4.36840401,0 5.61992004,1.22701833 5.61992004,2.74059644 L5.61992004,21.7564526 Z" id="路径"></path>
                        </g>
                        <path d="M15.4809619,26.411032 L9.84468938,26.411032 L9.84468938,16.481351 C9.84468938,15.0077433 11.0685531,13.813161 12.5782816,13.813161 L12.7474138,13.813161 C14.2570982,13.813161 15.4809619,15.0077433 15.4809619,16.481351 L15.4809619,26.411032 Z" id="Fill-3" fill="#389E0D"></path>
                        <path d="M7.89078156,21.7465142 L2.21693387,21.7465142 L2.21693387,10.9504943 C2.21693387,9.4685492 3.44400527,8.26715944 4.95762932,8.26715944 L5.15008611,8.26715944 C6.66371016,8.26715944 7.89078156,9.4685492 7.89078156,10.9504943 L7.89078156,21.7465142 Z" id="Fill-5" fill="#7CB305"></path>
                        <g id="Fill-7" transform="translate(0.000000, 21.113884)" fill="#3B68B8">
                            <path d="M15.8162219,16.4043753 L1.05634262,16.4043753 C0.472933395,16.4043753 0,15.9421476 0,15.3719448 L0,1.03243057 C0,0.462227768 0.472933395,0 1.05634262,0 L15.8162219,0 C16.3996311,0 16.8725645,0.462227768 16.8725645,1.03243057 L16.8725645,15.3719448 C16.8725645,15.9421476 16.3996311,16.4043753 15.8162219,16.4043753" id="路径"></path>
                        </g>
                    </g>
                </g>
                <g id="3.通用组件/彩色版/盆栽03备份-6" transform="translate(167.928449, 188.026783)" fill-rule="nonzero">
                    <g id="分组">
                        <g id="Fill-1" transform="translate(6.281231, 0.000000)" fill="#BAE637">
                            <path d="M4.99548447,17.4051621 L0,17.4051621 L0,2.19247714 C0,0.981614668 1.11241964,0 2.48468365,0 L2.51076179,0 C3.88302579,0 4.99548447,0.981614668 4.99548447,2.19247714 L4.99548447,17.4051621 Z" id="路径"></path>
                        </g>
                        <path d="M13.7608551,21.1288257 L8.75083501,21.1288257 L8.75083501,13.1850808 C8.75083501,12.0061947 9.83871389,11.0505288 11.1806947,11.0505288 L11.3310345,11.0505288 C12.6729762,11.0505288 13.7608551,12.0061947 13.7608551,13.1850808 L13.7608551,21.1288257 Z" id="Fill-3" fill="#389E0D"></path>
                        <path d="M7.01402806,17.3972113 L1.97060788,17.3972113 L1.97060788,8.76039544 C1.97060788,7.57483936 3.06133802,6.61372754 4.40678162,6.61372754 L4.57785433,6.61372754 C5.92329792,6.61372754 7.01402806,7.57483936 7.01402806,8.76039544 L7.01402806,17.3972113 Z" id="Fill-5" fill="#7CB305"></path>
                        <g id="Fill-7" transform="translate(0.000000, 16.891107)" fill="#3B68B8">
                            <path d="M14.0588639,13.1235003 L0.938971218,13.1235003 C0.420385238,13.1235003 0,12.753718 0,12.2975558 L0,0.825944453 C0,0.369782215 0.420385238,0 0.938971218,0 L14.0588639,0 C14.5774499,0 14.9978352,0.369782215 14.9978352,0.825944453 L14.9978352,12.2975558 C14.9978352,12.753718 14.5774499,13.1235003 14.0588639,13.1235003" id="路径"></path>
                        </g>
                    </g>
                </g>
                <rect id="矩形" fill="#B3C6F5" fill-rule="nonzero" x="222.44489" y="0" width="130.260521" height="156" rx="8"></rect>
                <rect id="矩形备份-4" fill="url(#linearGradient-3)" fill-rule="nonzero" x="182.364729" y="18" width="154.308617" height="170" rx="8"></rect>
                <path d="M198.396794,18 L320.641283,18 C329.495547,18 336.673347,25.163444 336.673347,34 L336.673347,46 L336.673347,46 L182.364729,46 L182.364729,34 C182.364729,25.163444 189.542529,18 198.396794,18 Z" id="矩形备份-5" fill="#7AA1F8" fill-rule="nonzero"></path>
                <ellipse id="椭圆形" fill="#FFFFFF" fill-rule="nonzero" cx="197.39479" cy="33" rx="5.01002004" ry="5"></ellipse>
                <ellipse id="椭圆形备份-10" fill="#FFFFFF" fill-rule="nonzero" cx="211.422846" cy="33" rx="5.01002004" ry="5"></ellipse>
                <ellipse id="椭圆形备份-11" fill="#FFFFFF" fill-rule="nonzero" cx="225.450902" cy="33" rx="5.01002004" ry="5"></ellipse>
                <ellipse id="椭圆形备份-16" fill="#FFFFFF" fill-rule="nonzero" cx="281.563126" cy="151" rx="9.01803607" ry="9"></ellipse>
                <g id="活跃度" transform="translate(221.665553, 64.000000)" fill-rule="nonzero">
                    <path d="M37.8247194,56.4736842 L0,56.4736842 L0,49.8691334 C0,47.904165 5.01597829,45.0206138 12.7339345,42.1937162 C20.4332268,39.3774686 22.8934902,36.9982504 22.8934902,31.9054412 C22.8934902,28.8480842 20.5424669,29.8465438 19.5114661,24.2491058 C19.0846377,21.9275024 17.0064099,24.2113862 16.6115001,18.9109713 C16.6115001,16.8011154 17.7451135,16.2767392 17.7451135,16.2767392 C17.7451135,16.2767392 17.1671467,13.149564 16.9410487,10.7426849 C16.6610162,7.74501354 18.6658078,0 29.348634,0 C40.0311557,0 42.0383849,7.74501354 41.7511156,10.7467527 C41.5281409,13.1536318 40.9529164,16.280807 40.9529164,16.280807 C40.9529164,16.280807 42.0841683,16.8050353 42.0841683,18.9150391 C41.688116,24.215454 39.6108024,21.9315702 39.1830597,24.2530256 C38.1495449,29.8505376 35.8021783,28.8520042 35.8021783,31.909509 C35.8021783,33.1869456 35.956516,34.292721 36.3099847,35.277276 C31.6804603,41.7904864 32.3168561,50.6924556 37.8247194,56.4736842 L37.8247194,56.4736842 Z" id="路径" fill="#FFFFFF"></path>
                    <path d="M63.904621,28.9936332 C65.0169086,34.5307508 61.4211206,39.0131194 61.4211206,39.0131194 C64.5131739,29.7423024 52.2595274,17.9195457 47.4917118,16.7894737 C53.4165809,31.1406082 46.8384711,35.279567 46.8384711,35.279567 C47.3970324,27.9343196 42.4097541,26.7714086 42.4097541,26.7714086 C45.3172841,32.6428058 39.9362363,34.3002154 37.6768779,40.8496706 C34.8592699,56.7122066 54.8877767,64.2929224 65.5007561,51.6318892 C73.2656336,41.6829404 63.904621,28.9936332 63.904621,28.9936332 Z M54.4639032,36.5649246 C60.6282004,45.3979382 59.1817274,50.8031108 55.7256188,53.034981 C53.1023609,54.7299418 50.5588864,54.7582156 48.4592507,52.4180358 C46.868419,50.643113 47.1028557,48.8915308 47.9257238,47.3896276 C49.2622314,44.960061 55.1571527,40.868299 54.4639032,36.5649246 Z" id="形状" fill="#5780DD"></path>
                </g>
                <path d="M202.40481,104 C202.40481,133.823376 226.629884,158 256.513026,158 C286.396168,158 310.621242,133.823376 310.621242,104" id="路径" stroke="url(#linearGradient-4)" stroke-width="2" stroke-linecap="round" stroke-linejoin="round"></path>
                <ellipse id="椭圆形" fill="#FFFFFF" fill-rule="nonzero" cx="207.41483" cy="129" rx="5.01002004" ry="5"></ellipse>
            </g>
        </g>
    </g>
</svg>