<?xml version="1.0" standalone="no"?><!DOCTYPE svg PUBLIC "-//W3C//DTD SVG 1.1//EN" "http://www.w3.org/Graphics/SVG/1.1/DTD/svg11.dtd"><svg t="1647961288492" class="icon" viewBox="0 0 1024 1024" version="1.1" xmlns="http://www.w3.org/2000/svg" p-id="1812" xmlns:xlink="http://www.w3.org/1999/xlink" width="200" height="200"><defs><style type="text/css">@font-face { font-family: feedback-iconfont; src: url("//at.alicdn.com/t/font_1031158_u69w8yhxdu.woff2?t=1630033759944") format("woff2"), url("//at.alicdn.com/t/font_1031158_u69w8yhxdu.woff?t=1630033759944") format("woff"), url("//at.alicdn.com/t/font_1031158_u69w8yhxdu.ttf?t=1630033759944") format("truetype"); }
</style></defs><path d="M512 42.667c259.206 0 469.333 210.127 469.333 469.333S771.206 981.333 512 981.333 42.667 771.206 42.667 512 252.794 42.667 512 42.667zM512 128c-212.077 0-384 171.923-384 384s171.923 384 384 384 384-171.923 384-384-171.923-384-384-384z" fill="#333330" p-id="1813"></path><path d="M671.713 512.42c23.564 0 42.667 19.103 42.667 42.667 0 111.771-90.609 202.38-202.38 202.38s-202.38-90.609-202.38-202.38c0-23.564 19.103-42.667 42.667-42.667s42.667 19.103 42.667 42.667c0 64.643 52.403 117.046 117.046 117.046s117.046-52.403 117.046-117.046c0-23.564 19.103-42.667 42.667-42.667z" fill="#EF502F" p-id="1814"></path></svg>